<svg width="800" height="800" viewBox="0 0 800 800" fill="none" xmlns="http://www.w3.org/2000/svg">
<path d="M658.667 359L655.667 347.333H407.667V452.667H556C547.723 484.81 528.907 513.247 502.557 533.43C476.21 553.613 443.853 564.377 410.667 564C367.36 563.643 325.751 547.117 294 517.667C278.391 502.283 265.971 483.97 257.448 463.78C248.926 443.59 244.469 421.917 244.333 400C244.837 355.983 262.264 313.848 293 282.334C324.303 252.679 365.88 236.311 409 236.667C445.93 236.952 481.487 250.7 509 275.334L582.333 200.001C534 156.879 471.44 133.137 406.667 133.334C371.033 133.122 335.71 139.931 302.709 153.372C269.708 166.812 239.678 186.621 214.333 211.667C166.123 261.743 138.942 328.394 138.384 397.903C137.826 467.413 163.933 534.49 211.333 585.333C237.595 611.497 268.807 632.167 303.147 646.13C337.487 660.097 374.263 667.077 411.333 666.667C444.947 666.917 478.263 660.34 509.263 647.333C540.26 634.327 568.293 615.163 591.667 591C637.53 540.57 662.34 474.49 661 406.333C661.36 390.52 660.58 374.703 658.667 359Z" fill="#E94057"/>
</svg>
